<?xml version="1.0" standalone="no"?>
<!DOCTYPE svg PUBLIC "-//W3C//DTD SVG 20010904//EN"
 "http://www.w3.org/TR/2001/REC-SVG-20010904/DTD/svg10.dtd">
<svg version="1.0" xmlns="http://www.w3.org/2000/svg"
 width="1280.000000pt" height="640.000000pt" viewBox="0 0 1280 640.000000"
 preserveAspectRatio="xMidYMid meet">
<g transform="translate(0.000000,640.000000) scale(0.100000,-0.100000)"
fill="#ffffff" stroke="none">
<path d="M11723 6064 c-65 -32 -90 -110 -57 -179 24 -52 56 -67 164 -77 161
-14 327 -55 419 -103 l33 -17 -26 -13 c-14 -7 -74 -55 -133 -107 -977 -846
-2484 -1700 -3822 -2165 -623 -216 -1152 -334 -1636 -363 -253 -15 -770 3
-1140 40 -1517 153 -2893 675 -3898 1478 -161 128 -296 252 -457 418 -170 175
-283 315 -420 521 l-108 163 51 15 c166 47 364 70 546 62 120 -6 137 -4 172
13 96 49 92 188 -7 235 -51 24 -268 32 -430 15 -302 -30 -509 -99 -646 -214
-246 -205 -371 -526 -313 -800 17 -80 34 -109 78 -136 63 -39 148 -15 183 51
12 24 15 46 10 88 -22 191 -14 256 48 378 39 78 95 148 96 121 0 -37 304 -658
452 -926 620 -1121 1360 -1943 2219 -2468 741 -452 1534 -696 2494 -765 628
-45 1364 143 2270 580 1440 696 3248 2084 4449 3416 55 61 108 125 119 144
l20 33 19 -36 c26 -51 58 -180 58 -235 0 -25 -5 -62 -10 -81 -16 -56 -14 -127
4 -155 41 -62 123 -82 184 -45 44 27 71 90 85 201 28 225 -66 485 -244 670
-113 116 -324 205 -584 244 -128 19 -202 19 -242 -1z m-9627 -2309 c84 -55
159 -104 167 -110 11 -8 17 -39 22 -128 8 -143 19 -143 -142 2 -88 79 -140
138 -245 278 -74 98 -138 184 -142 191 -4 8 36 -19 90 -60 55 -40 167 -118
250 -173z m7733 -151 c-13 -14 -55 -44 -94 -66 -38 -22 -128 -75 -200 -118
-71 -42 -196 -111 -277 -153 l-148 -76 0 29 c0 28 10 34 308 183 169 85 334
170 367 190 73 43 74 43 44 11z m-6956 -293 c143 -71 193 -100 178 -104 -17
-4 -20 -11 -16 -34 6 -37 26 -355 23 -359 -2 -1 -90 43 -196 99 -174 92 -201
109 -268 176 -71 72 -74 77 -74 121 0 26 -3 102 -7 169 l-6 122 84 -46 c46
-26 173 -91 282 -144z m5997 -179 c0 -5 -14 -29 -31 -52 -117 -162 -397 -329
-824 -492 -71 -28 -138 -54 -147 -59 -17 -9 -18 -1 -18 103 0 62 4 118 8 123
4 6 99 41 212 79 189 63 618 228 735 282 55 26 65 28 65 16z m-5405 -80 c99
-38 250 -93 337 -121 l156 -52 7 -112 c3 -62 9 -190 13 -286 l7 -173 -25 -10
c-54 -21 -201 28 -325 107 -56 35 -302 241 -336 281 -13 15 -18 53 -23 184 -3
91 -9 187 -13 214 -5 40 -3 48 8 43 8 -3 95 -37 194 -75z m929 -291 c180 -45
375 -85 596 -124 73 -13 74 -13 81 -47 11 -52 32 -590 24 -598 -24 -24 -326
16 -485 64 -80 24 -393 125 -397 128 0 0 -6 129 -12 286 -6 157 -13 297 -16
313 -2 15 -1 27 2 27 4 0 97 -22 207 -49z m3231 -249 l-7 -122 -62 -44 c-92
-66 -148 -90 -307 -136 -79 -23 -200 -59 -269 -80 -340 -104 -501 -152 -504
-149 -5 5 13 442 19 495 l6 41 127 7 c134 6 304 26 455 51 106 18 430 89 497
109 l45 13 3 -31 c2 -17 1 -86 -3 -154z m-2190 63 c187 -21 473 -43 671 -51
l172 -6 -4 -37 c-4 -34 -24 -479 -24 -526 0 -21 -7 -24 -97 -34 -344 -40 -617
-30 -799 30 l-32 10 -7 202 c-4 111 -10 253 -14 315 -3 61 -4 112 -1 112 3 0
64 -7 135 -15z"/>
<path d="M1980 2322 c125 -452 450 -863 981 -1242 390 -280 940 -539 1384
-655 289 -75 499 -98 905 -99 309 -1 431 7 699 45 859 120 1743 483 2511 1032
177 127 426 335 488 409 19 22 -19 6 -200 -81 -454 -221 -808 -364 -1323 -538
-375 -126 -628 -183 -1025 -232 -356 -44 -564 -55 -1015 -54 -427 1 -431 1
-550 27 -354 78 -772 212 -1105 353 -556 236 -1099 569 -1637 1004 -67 55
-124 99 -127 99 -3 0 4 -31 14 -68z"/>
</g>
</svg>
